<?xml version="1.0" encoding="UTF-8" standalone="no"?>
<!-- Created with Inkscape (http://www.inkscape.org/) -->

<svg
   xmlns:dc="http://purl.org/dc/elements/1.1/"
   xmlns:cc="http://creativecommons.org/ns#"
   xmlns:rdf="http://www.w3.org/1999/02/22-rdf-syntax-ns#"
   xmlns:svg="http://www.w3.org/2000/svg"
   xmlns="http://www.w3.org/2000/svg"
   xmlns:sodipodi="http://sodipodi.sourceforge.net/DTD/sodipodi-0.dtd"
   xmlns:inkscape="http://www.inkscape.org/namespaces/inkscape"
   id="svg2"
   version="1.1"
   inkscape:version="0.91 r13725"
   xml:space="preserve"
   width="124.0125"
   height="124.0125"
   viewBox="0 0 124.0125 124.0125"
   sodipodi:docname="boat.svg"><metadata
     id="metadata8"><rdf:RDF><cc:Work
         rdf:about=""><dc:format>image/svg+xml</dc:format><dc:type
           rdf:resource="http://purl.org/dc/dcmitype/StillImage" /><dc:title></dc:title></cc:Work></rdf:RDF></metadata><defs
     id="defs6"><clipPath
       clipPathUnits="userSpaceOnUse"
       id="clipPath16"><path
         d="m 0,99.21 99.21,0 L 99.21,0 0,0 0,99.21 Z"
         id="path18"
         inkscape:connector-curvature="0" /></clipPath></defs><sodipodi:namedview
     pagecolor="#ffffff"
     bordercolor="#666666"
     borderopacity="1"
     objecttolerance="10"
     gridtolerance="10"
     guidetolerance="10"
     inkscape:pageopacity="0"
     inkscape:pageshadow="2"
     inkscape:window-width="1680"
     inkscape:window-height="1014"
     id="namedview4"
     showgrid="false"
     inkscape:zoom="1.903034"
     inkscape:cx="-29.952171"
     inkscape:cy="62.006248"
     inkscape:window-x="0"
     inkscape:window-y="36"
     inkscape:window-maximized="0"
     inkscape:current-layer="g10" /><g
     id="g10"
     inkscape:groupmode="layer"
     inkscape:label="drift_baat_SORT"
     transform="matrix(1.25,0,0,-1.25,0,124.0125)"><g
       id="g12"><g
         id="g14"
         clip-path="url(#clipPath16)"><g
           id="g20"
           transform="translate(15.5908,49.6045)"><path
             d="M 0,0 C 0,18.786 15.229,34.016 34.016,34.016 52.802,34.016 68.03,18.786 68.03,0 68.03,-18.787 52.802,-34.016 34.016,-34.016 15.229,-34.016 0,-18.787 0,0 m 34.016,-32.599 c 18.003,0 32.598,14.595 32.598,32.599 0,18.003 -14.595,32.599 -32.598,32.599 C 16.012,32.599 1.418,18.003 1.418,0 c 0,-18.004 14.594,-32.599 32.598,-32.599"
             style="fill:#1b1b1f;fill-opacity:1;fill-rule:nonzero;stroke:none"
             id="path22"
             inkscape:connector-curvature="0" /></g><g
           id="g24"
           transform="translate(69.6504,41.1279)"><path
             d="m 0,0 c -1.419,0.729 -3.026,1.553 -6.088,1.553 -3.06,0 -4.67,-0.824 -6.088,-1.553 -1.327,-0.682 -2.472,-1.271 -4.911,-1.271 -2.437,0 -3.582,0.589 -4.909,1.271 -1.419,0.729 -3.026,1.553 -6.087,1.553 -3.062,0 -4.669,-0.824 -6.088,-1.553 -1.327,-0.682 -2.473,-1.271 -4.909,-1.271 -2.438,0 -3.584,0.589 -4.91,1.271 -0.806,0.412 -1.673,0.857 -2.833,1.166 l -0.702,-2.48 c 0.907,-0.237 1.603,-0.594 2.357,-0.981 1.419,-0.728 3.026,-1.555 6.088,-1.555 3.06,0 4.669,0.827 6.087,1.555 1.327,0.682 2.472,1.27 4.91,1.27 2.437,0 3.583,-0.588 4.909,-1.27 1.419,-0.728 3.027,-1.555 6.087,-1.555 3.062,0 4.67,0.827 6.089,1.555 1.326,0.682 2.473,1.27 4.91,1.27 2.439,0 3.584,-0.588 4.91,-1.27 0.047,-0.023 0.094,-0.049 0.142,-0.072 l 1.529,2.115 C 0.33,-0.17 0.167,-0.086 0,0"
             style="fill:#1b1b1f;fill-opacity:1;fill-rule:nonzero;stroke:none"
             id="path26"
             inkscape:connector-curvature="0" /></g><g
           id="g28"
           transform="translate(53.5186,52.5078)"><path
             d="m 0,0 0,3.813 9.168,0 L 10.129,0 0,0 Z m -1.815,0 -9.168,0 0,3.813 9.168,0 0,-3.813 z m -10.983,0 -9.116,0 0.864,3.813 8.252,0 0,-3.813 z M 23.895,-0.005 15.513,0 12.718,11.305 c -0.108,0.58 -0.414,0.72 -0.925,0.72 l -4.479,0 -1.02,4.014 c -0.09,0.292 -0.35,0.482 -0.657,0.482 -0.066,0 -0.129,-0.01 -0.19,-0.027 l -6.334,-2.29 c -0.679,-0.26 -0.888,-0.582 -0.888,-1.302 l -0.001,-4.916 -20.049,0 c -0.471,0 -0.828,-0.349 -0.919,-0.859 L -24.376,0 -27.021,-0.001 c -0.449,0.008 -0.814,-0.3 -0.933,-0.707 L -30.03,-8.05 c 1.471,-0.383 2.548,-0.933 3.432,-1.388 1.212,-0.622 1.879,-0.965 3.65,-0.965 1.77,0 2.436,0.343 3.648,0.965 1.528,0.785 3.62,1.859 7.349,1.859 3.728,0 5.82,-1.074 7.347,-1.859 1.212,-0.622 1.878,-0.965 3.649,-0.965 1.771,0 2.438,0.343 3.65,0.965 1.529,0.785 3.621,1.859 7.349,1.859 3.728,0 5.82,-1.074 7.349,-1.859 0.192,-0.098 0.543,-0.274 0.543,-0.274 l 6.385,8.835 c 0,0 0.111,0.167 0.111,0.327 0,0.328 -0.212,0.545 -0.537,0.545"
             style="fill:#1b1b1f;fill-opacity:1;fill-rule:nonzero;stroke:none"
             id="path30"
             inkscape:connector-curvature="0" /></g></g></g></g></svg>