<?xml version="1.0" encoding="UTF-8" standalone="no"?>
<!-- Created with Inkscape (http://www.inkscape.org/) -->

<svg
   xmlns:dc="http://purl.org/dc/elements/1.1/"
   xmlns:cc="http://creativecommons.org/ns#"
   xmlns:rdf="http://www.w3.org/1999/02/22-rdf-syntax-ns#"
   xmlns:svg="http://www.w3.org/2000/svg"
   xmlns="http://www.w3.org/2000/svg"
   xmlns:sodipodi="http://sodipodi.sourceforge.net/DTD/sodipodi-0.dtd"
   xmlns:inkscape="http://www.inkscape.org/namespaces/inkscape"
   id="svg2"
   version="1.1"
   inkscape:version="0.91 r13725"
   xml:space="preserve"
   width="124.0125"
   height="124.0125"
   viewBox="0 0 124.0125 124.0125"
   sodipodi:docname="bus.svg"><metadata
     id="metadata8"><rdf:RDF><cc:Work
         rdf:about=""><dc:format>image/svg+xml</dc:format><dc:type
           rdf:resource="http://purl.org/dc/dcmitype/StillImage" /><dc:title></dc:title></cc:Work></rdf:RDF></metadata><defs
     id="defs6"><clipPath
       clipPathUnits="userSpaceOnUse"
       id="clipPath16"><path
         d="m 0,99.21 99.21,0 L 99.21,0 0,0 0,99.21 Z"
         id="path18"
         inkscape:connector-curvature="0" /></clipPath></defs><sodipodi:namedview
     pagecolor="#ffffff"
     bordercolor="#666666"
     borderopacity="1"
     objecttolerance="10"
     gridtolerance="10"
     guidetolerance="10"
     inkscape:pageopacity="0"
     inkscape:pageshadow="2"
     inkscape:window-width="1680"
     inkscape:window-height="1014"
     id="namedview4"
     showgrid="false"
     inkscape:zoom="1.903034"
     inkscape:cx="-29.952171"
     inkscape:cy="62.006248"
     inkscape:window-x="0"
     inkscape:window-y="36"
     inkscape:window-maximized="0"
     inkscape:current-layer="g10" /><g
     id="g10"
     inkscape:groupmode="layer"
     inkscape:label="drift_buss_SORT"
     transform="matrix(1.25,0,0,-1.25,0,124.0125)"><g
       id="g12"><g
         id="g14"
         clip-path="url(#clipPath16)"><g
           id="g20"
           transform="translate(15.5908,49.6045)"><path
             d="M 0,0 C 0,18.786 15.229,34.016 34.015,34.016 52.802,34.016 68.031,18.786 68.031,0 68.031,-18.787 52.802,-34.016 34.015,-34.016 15.229,-34.016 0,-18.787 0,0 m 34.015,-32.599 c 18.004,0 32.599,14.595 32.599,32.599 0,18.003 -14.595,32.599 -32.599,32.599 C 16.013,32.599 1.417,18.003 1.417,0 c 0,-18.004 14.596,-32.599 32.598,-32.599"
             style="fill:#1b1b1f;fill-opacity:1;fill-rule:nonzero;stroke:none"
             id="path22"
             inkscape:connector-curvature="0" /></g><g
           id="g24"
           transform="translate(65.1172,40.2656)"><path
             d="m 0,0 c 0,-2.227 -1.803,-4.029 -4.025,-4.029 -2.227,0 -4.032,1.802 -4.032,4.029 0,2.221 1.805,4.025 4.032,4.025 C -1.803,4.025 0,2.221 0,0"
             style="fill:#1b1b1f;fill-opacity:1;fill-rule:nonzero;stroke:none"
             id="path26"
             inkscape:connector-curvature="0" /></g><path
           d="m 71.705,48.289 -9.693,0 0,8.054 9.693,0 0,-8.054 z m -11.482,0 -9.709,0 0,8.054 9.709,0 0,-8.054 z m -11.518,0 -9.693,0 0,8.054 9.693,0 0,-8.054 z m -11.502,0 -9.693,0 0,8.054 9.693,0 0,-8.054 z m 35.693,12.18 -46.58,0 c -0.545,0 -0.992,-0.448 -0.992,-0.994 l 0,-18.737 c 0,-0.545 0.447,-0.994 0.992,-0.994 l 6.039,0 c -0.011,0.146 -0.021,0.29 -0.021,0.438 0,3.172 2.574,5.749 5.754,5.749 3.176,0 5.746,-2.577 5.746,-5.749 0,-0.148 -0.01,-0.292 -0.021,-0.438 l 11.552,0 c -0.015,0.172 -0.027,0.345 -0.027,0.522 0,3.173 2.574,5.748 5.754,5.748 3.174,0 5.748,-2.575 5.748,-5.748 0,-0.177 -0.01,-0.35 -0.026,-0.522 l 6.082,0 c 0.545,0 0.993,0.449 0.993,0.994 l 0,18.737 c 0,0.546 -0.448,0.994 -0.993,0.994"
           style="fill:#1b1b1f;fill-opacity:1;fill-rule:nonzero;stroke:none"
           id="path28"
           inkscape:connector-curvature="0" /><g
           id="g30"
           transform="translate(42.1133,40.1816)"><path
             d="m 0,0 c 0,-2.227 -1.805,-4.029 -4.027,-4.029 -2.227,0 -4.032,1.802 -4.032,4.029 0,2.222 1.805,4.026 4.032,4.026 C -1.805,4.026 0,2.222 0,0"
             style="fill:#1b1b1f;fill-opacity:1;fill-rule:nonzero;stroke:none"
             id="path32"
             inkscape:connector-curvature="0" /></g></g></g></g></svg>