<?xml version="1.0" encoding="UTF-8" standalone="no"?>
<!-- Generator: Adobe Illustrator 17.0.1, SVG Export Plug-In . SVG Version: 6.00 Build 0)  -->

<svg
   xmlns:dc="http://purl.org/dc/elements/1.1/"
   xmlns:cc="http://creativecommons.org/ns#"
   xmlns:rdf="http://www.w3.org/1999/02/22-rdf-syntax-ns#"
   xmlns:svg="http://www.w3.org/2000/svg"
   xmlns="http://www.w3.org/2000/svg"
   xmlns:sodipodi="http://sodipodi.sourceforge.net/DTD/sodipodi-0.dtd"
   xmlns:inkscape="http://www.inkscape.org/namespaces/inkscape"
   version="1.1"
   x="0px"
   y="0px"
   width="86px"
   height="86px"
   viewBox="0 0 86 86"
   enable-background="new 0 0 86 86"
   xml:space="preserve"
   id="svg2"
   inkscape:version="0.91 r13725"
   sodipodi:docname="cover.svg"><metadata
     id="metadata21"><rdf:RDF><cc:Work
         rdf:about=""><dc:format>image/svg+xml</dc:format><dc:type
           rdf:resource="http://purl.org/dc/dcmitype/StillImage" /><dc:title></dc:title></cc:Work></rdf:RDF></metadata><defs
     id="defs19"><clipPath
       clipPathUnits="userSpaceOnUse"
       id="clipPath16"><path
         d="m 0,841.89 1190.551,0 0,-841.89 L 0,0 0,841.89 Z"
         id="path18"
         inkscape:connector-curvature="0" /></clipPath></defs><sodipodi:namedview
     pagecolor="#ffffff"
     bordercolor="#666666"
     borderopacity="1"
     objecttolerance="10"
     gridtolerance="10"
     guidetolerance="10"
     inkscape:pageopacity="0"
     inkscape:pageshadow="2"
     inkscape:window-width="1680"
     inkscape:window-height="1014"
     id="namedview17"
     showgrid="false"
     inkscape:zoom="2.744186"
     inkscape:cx="-83.813559"
     inkscape:cy="42.999999"
     inkscape:window-x="0"
     inkscape:window-y="36"
     inkscape:window-maximized="0"
     inkscape:current-layer="svg2" /><g
     id="Layer_2"
     display="none" /><g
     transform="matrix(2.9429321,0,0,-3.3031173,-1128.5769,1783.1735)"
     id="g12"><g
       id="g14"
       clip-path="url(#clipPath16)"
       transform="translate(-17.836653,-115.93825)"><g
         id="g40"
         transform="translate(419.00756,630.13056)"
         style="fill:#32374b;fill-opacity:1"><path
           d="m 0,0 1.542,0 0.285,1.479 -1.541,0 L 0,0 Z m -2.077,0 1.541,0 0.286,1.479 -1.542,0 L -2.077,0 Z m -8.308,0 1.541,0 0.286,1.479 -1.541,0 L -10.385,0 Z m -2.077,0 1.541,0 0.286,1.479 -1.542,0 L -12.462,0 Z m 12.847,1.992 1.541,0 0.285,1.479 -1.542,0 -0.284,-1.479 z m -2.077,0 1.541,0 0.285,1.479 -1.541,0 -0.285,-1.479 z m -8.308,0 1.541,0 0.286,1.479 -1.542,0 L -10,1.992 Z m -2.077,0 1.541,0 0.286,1.479 -1.542,0 -0.285,-1.479 z m 12.847,1.991 1.541,0 0.285,1.479 -1.542,0 L 0.77,3.983 Z m -2.078,0 1.541,0 0.286,1.479 -1.541,0 -0.286,-1.479 z m -8.307,0 1.54,0 0.286,1.479 -1.542,0 -0.284,-1.479 z m -2.078,0 1.542,0 0.285,1.479 -1.541,0 -0.286,-1.479 z m 19.078,1.993 1.541,0 0.285,1.478 -1.541,0 -0.285,-1.478 z m -2.077,0 1.541,0 0.286,1.478 -1.542,0 -0.285,-1.478 z m -2.078,0 1.542,0 0.285,1.478 -1.541,0 L 3.23,5.976 Z m -2.076,0 1.541,0 0.286,1.478 -1.542,0 -0.285,-1.478 z m -2.077,0 1.541,0 0.285,1.478 -1.541,0 -0.285,-1.478 z m -2.077,0 1.542,0 0.284,1.478 -1.54,0 L -3,5.976 Z m -2.078,0 1.542,0 0.286,1.478 -1.542,0 -0.286,-1.478 z m -2.076,0 1.542,0 0.284,1.478 -1.541,0 -0.285,-1.478 z m -2.077,0 1.541,0 0.286,1.478 -1.542,0 -0.285,-1.478 z m -2.077,0 1.541,0 0.286,1.478 -1.541,0 -0.286,-1.478 z m -2.078,0 1.542,0 0.285,1.478 -1.541,0 -0.286,-1.478 z m -2.077,0 1.542,0 0.286,1.478 -1.542,0 -0.286,-1.478 z m -2.077,0 1.542,0 0.285,1.478 -1.541,0 -0.286,-1.478 z m 25.309,1.991 1.542,0 0.285,1.479 -1.541,0 -0.286,-1.479 z m -2.076,0 1.54,0 0.286,1.479 -1.541,0 -0.285,-1.479 z m -2.078,0 1.542,0 0.285,1.479 -1.541,0 -0.286,-1.479 z m -2.077,0 1.542,0 0.285,1.479 -1.541,0 -0.286,-1.479 z m -2.076,0 1.54,0 0.286,1.479 -1.541,0 -0.285,-1.479 z m -2.078,0 1.542,0 0.285,1.479 -1.541,0 -0.286,-1.479 z m -2.077,0 1.542,0 0.285,1.479 -1.542,0 -0.285,-1.479 z m -2.077,0 1.542,0 0.285,1.479 -1.541,0 -0.286,-1.479 z m -2.077,0 1.542,0 0.285,1.479 -1.542,0 -0.285,-1.479 z m -2.077,0 1.542,0 0.285,1.479 -1.542,0 -0.285,-1.479 z m -2.077,0 1.542,0 0.285,1.479 -1.541,0 -0.286,-1.479 z m -2.077,0 1.542,0 0.285,1.479 -1.541,0 -0.286,-1.479 z m -2.077,0 1.541,0 0.286,1.479 -1.542,0 -0.285,-1.479 z m 19.078,1.992 1.541,0 0.286,1.479 -1.542,0 -0.285,-1.479 z m -2.077,0 1.541,0 0.285,1.479 -1.54,0 -0.286,-1.479 z m -8.308,0 1.541,0 0.285,1.479 -1.541,0 -0.285,-1.479 z m -2.078,0 1.542,0 0.286,1.479 -1.542,0 -0.286,-1.479 z m 12.848,1.992 1.542,0 0.285,1.479 -1.542,0 -0.285,-1.479 z m -2.078,0 1.542,0 0.285,1.479 -1.541,0 -0.286,-1.479 z m -8.307,0 1.54,0 0.286,1.479 -1.541,0 -0.285,-1.479 z m -2.078,0 1.542,0 0.285,1.479 -1.542,0 -0.285,-1.479 z m 12.847,1.992 1.541,0 0.286,1.478 -1.541,0 -0.286,-1.478 z m -2.077,0 1.541,0 0.286,1.478 -1.542,0 -0.285,-1.478 z m -8.308,0 1.541,0 0.285,1.478 -1.54,0 -0.286,-1.478 z m -2.077,0 1.541,0 0.286,1.478 -1.542,0 -0.285,-1.478 z m 19.078,1.992 1.541,0 0.285,1.479 -1.541,0 -0.285,-1.479 z m -2.078,0 1.541,0 0.286,1.479 -1.541,0 -0.286,-1.479 z m -2.077,0 1.542,0 0.285,1.479 -1.542,0 -0.285,-1.479 z m -2.076,0 1.541,0 0.285,1.479 -1.541,0 -0.285,-1.479 z m -2.077,0 1.541,0 0.285,1.479 -1.541,0 L 1,15.935 Z m -2.077,0 1.541,0 0.286,1.479 -1.542,0 -0.285,-1.479 z m -2.077,0 1.541,0 0.285,1.479 -1.541,0 -0.285,-1.479 z m -2.077,0 1.541,0 0.286,1.479 -1.542,0 -0.285,-1.479 z m -2.078,0 1.542,0 0.285,1.479 -1.541,0 -0.286,-1.479 z m -2.077,0 1.542,0 0.285,1.479 -1.541,0 -0.286,-1.479 z m -2.077,0 1.542,0 0.285,1.479 -1.542,0 -0.285,-1.479 z m -2.078,0 1.542,0 0.286,1.479 -1.542,0 -0.286,-1.479 z m -2.076,0 1.542,0 0.284,1.479 -1.541,0 -0.285,-1.479 z m 25.594,3.47 -0.285,-1.479 1.541,0 0.286,1.479 -1.542,0 z m -2.362,-1.479 1.541,0 0.285,1.479 -1.54,0 -0.286,-1.479 z m -2.077,0 1.542,0 0.285,1.479 -1.541,0 -0.286,-1.479 z m -2.077,0 1.541,0 0.286,1.479 -1.542,0 -0.285,-1.479 z m -2.077,0 1.542,0 0.284,1.479 -1.54,0 -0.286,-1.479 z m -2.077,0 1.542,0 0.285,1.479 -1.542,0 -0.285,-1.479 z m -2.077,0 1.541,0 0.286,1.479 -1.542,0 -0.285,-1.479 z m -2.077,0 1.542,0 0.285,1.479 -1.542,0 -0.285,-1.479 z m -2.077,0 1.542,0 0.285,1.479 -1.542,0 -0.285,-1.479 z m -2.077,0 1.541,0 0.286,1.479 -1.542,0 -0.285,-1.479 z m -2.078,0 1.542,0 0.286,1.479 -1.542,0 -0.286,-1.479 z m -2.076,0 1.541,0 0.286,1.479 -1.542,0 -0.285,-1.479 z m -2.077,0 1.541,0 0.285,1.479 -1.541,0 -0.285,-1.479 z m 19.077,1.992 1.542,0 0.286,1.478 -1.542,0 -0.286,-1.478 z m -2.076,0 1.541,0 0.285,1.478 -1.541,0 -0.285,-1.478 z m -8.309,0 1.542,0 0.286,1.478 -1.542,0 -0.286,-1.478 z m -2.077,0 1.542,0 0.285,1.478 -1.541,0 -0.286,-1.478 z m 12.847,1.992 1.542,0 0.286,1.479 -1.542,0 L 4.23,21.91 Z m -2.077,0 1.541,0 0.286,1.479 -1.542,0 -0.285,-1.479 z m -8.308,0 1.542,0 0.285,1.479 -1.541,0 -0.286,-1.479 z m -2.077,0 1.542,0 0.285,1.479 -1.542,0 -0.285,-1.479 z m 12.846,1.992 1.542,0 0.286,1.479 -1.542,0 -0.286,-1.479 z m -2.077,0 1.542,0 0.285,1.479 -1.541,0 -0.286,-1.479 z m -8.308,0 1.542,0 0.285,1.479 -1.541,0 -0.286,-1.479 z m -2.077,0 1.542,0 0.285,1.479 -1.542,0 -0.285,-1.479 z"
           style="fill:#32374b;fill-opacity:1;fill-rule:nonzero;stroke:none"
           id="path42"
           inkscape:connector-curvature="0" /></g></g></g></svg>