<?xml version="1.0" encoding="UTF-8" standalone="no"?>
<!-- Created with Inkscape (http://www.inkscape.org/) -->

<svg
   xmlns:dc="http://purl.org/dc/elements/1.1/"
   xmlns:cc="http://creativecommons.org/ns#"
   xmlns:rdf="http://www.w3.org/1999/02/22-rdf-syntax-ns#"
   xmlns:svg="http://www.w3.org/2000/svg"
   xmlns="http://www.w3.org/2000/svg"
   xmlns:sodipodi="http://sodipodi.sourceforge.net/DTD/sodipodi-0.dtd"
   xmlns:inkscape="http://www.inkscape.org/namespaces/inkscape"
   id="svg2"
   version="1.1"
   inkscape:version="0.91 r13725"
   xml:space="preserve"
   width="124.0125"
   height="124.0125"
   viewBox="0 0 124.0125 124.0125"
   sodipodi:docname="t-bane.svg"><metadata
     id="metadata8"><rdf:RDF><cc:Work
         rdf:about=""><dc:format>image/svg+xml</dc:format><dc:type
           rdf:resource="http://purl.org/dc/dcmitype/StillImage" /><dc:title></dc:title></cc:Work></rdf:RDF></metadata><defs
     id="defs6"><clipPath
       clipPathUnits="userSpaceOnUse"
       id="clipPath16"><path
         d="m 0,99.21 99.21,0 L 99.21,0 0,0 0,99.21 Z"
         id="path18"
         inkscape:connector-curvature="0" /></clipPath></defs><sodipodi:namedview
     pagecolor="#ffffff"
     bordercolor="#666666"
     borderopacity="1"
     objecttolerance="10"
     gridtolerance="10"
     guidetolerance="10"
     inkscape:pageopacity="0"
     inkscape:pageshadow="2"
     inkscape:window-width="1680"
     inkscape:window-height="1014"
     id="namedview4"
     showgrid="false"
     inkscape:zoom="1.903034"
     inkscape:cx="-29.952171"
     inkscape:cy="62.006248"
     inkscape:window-x="0"
     inkscape:window-y="36"
     inkscape:window-maximized="0"
     inkscape:current-layer="g10" /><g
     id="g10"
     inkscape:groupmode="layer"
     inkscape:label="drift_T-bane_SORT"
     transform="matrix(1.25,0,0,-1.25,0,124.0125)"><g
       id="g12"><g
         id="g14"
         clip-path="url(#clipPath16)"><g
           id="g20"
           transform="translate(70.3232,28.8467)"><path
             d="m 0,0 c -8.378,-8.285 -21.037,-10.798 -31.928,-6.237 -10.984,4.466 -18.057,15.173 -18.057,26.994 0,13.219 8.842,24.854 21.688,28.296 C -15.545,52.497 -2.048,46.913 4.654,35.37 11.263,23.921 9.308,9.4 0,0 M 8.656,37.698 C 1.022,51.101 -14.614,57.618 -29.507,53.615 -44.4,49.613 -54.732,36.208 -54.732,20.757 c 0,-13.776 8.284,-26.156 21.035,-31.461 12.66,-5.214 27.273,-2.328 37.048,7.352 10.89,10.891 13.125,27.831 5.305,41.05"
             style="fill:#1b1b1f;fill-opacity:1;fill-rule:nonzero;stroke:none"
             id="path22"
             inkscape:connector-curvature="0" /></g><g
           id="g24"
           transform="translate(46.7725,25.0283)"><path
             d="m 0,0 -0.092,36.396 -13.125,0 0,5.02 32.021,0 0,-5.02 -13.032,0 L 5.772,0 0,0 Z"
             style="fill:#1b1b1f;fill-opacity:1;fill-rule:nonzero;stroke:none"
             id="path26"
             inkscape:connector-curvature="0" /></g></g></g></g></svg>