<?xml version="1.0" encoding="UTF-8" standalone="no"?>
<!-- Created with Inkscape (http://www.inkscape.org/) -->

<svg
   xmlns:dc="http://purl.org/dc/elements/1.1/"
   xmlns:cc="http://creativecommons.org/ns#"
   xmlns:rdf="http://www.w3.org/1999/02/22-rdf-syntax-ns#"
   xmlns:svg="http://www.w3.org/2000/svg"
   xmlns="http://www.w3.org/2000/svg"
   xmlns:sodipodi="http://sodipodi.sourceforge.net/DTD/sodipodi-0.dtd"
   xmlns:inkscape="http://www.inkscape.org/namespaces/inkscape"
   id="svg2"
   version="1.1"
   inkscape:version="0.91 r13725"
   xml:space="preserve"
   width="124.0125"
   height="124.0125"
   viewBox="0 0 124.0125 124.0125"
   sodipodi:docname="train.svg"><metadata
     id="metadata8"><rdf:RDF><cc:Work
         rdf:about=""><dc:format>image/svg+xml</dc:format><dc:type
           rdf:resource="http://purl.org/dc/dcmitype/StillImage" /><dc:title></dc:title></cc:Work></rdf:RDF></metadata><defs
     id="defs6"><clipPath
       clipPathUnits="userSpaceOnUse"
       id="clipPath16"><path
         d="m 0,99.21 99.21,0 L 99.21,0 0,0 0,99.21 Z"
         id="path18"
         inkscape:connector-curvature="0" /></clipPath></defs><sodipodi:namedview
     pagecolor="#ffffff"
     bordercolor="#666666"
     borderopacity="1"
     objecttolerance="10"
     gridtolerance="10"
     guidetolerance="10"
     inkscape:pageopacity="0"
     inkscape:pageshadow="2"
     inkscape:window-width="1680"
     inkscape:window-height="1014"
     id="namedview4"
     showgrid="false"
     inkscape:zoom="1.903034"
     inkscape:cx="-29.952171"
     inkscape:cy="62.006248"
     inkscape:window-x="0"
     inkscape:window-y="36"
     inkscape:window-maximized="0"
     inkscape:current-layer="g10" /><g
     id="g10"
     inkscape:groupmode="layer"
     inkscape:label="drift_tog_SORT"
     transform="matrix(1.25,0,0,-1.25,0,124.0125)"><g
       id="g12"><g
         id="g14"
         clip-path="url(#clipPath16)"><g
           id="g20"
           transform="translate(54.2695,53.208)"><path
             d="m 0,0 0,4.588 7.045,0 L 11.627,0 0,0 Z m -4.664,-36.201 c -12.355,0 -23.104,6.874 -28.633,17.007 l 45.125,0 0,2.606 -46.394,0 c -0.448,1.03 -0.847,2.086 -1.188,3.168 l 45.807,-0.011 c 0.015,0 0.031,10e-4 0.047,10e-4 l 3.028,-10e-4 c 1.784,0 3.402,0.73 4.566,1.89 1.174,1.176 1.896,2.798 1.896,4.579 0,1.786 -0.722,3.413 -1.896,4.575 L 8.395,6.932 C 8.15,7.169 7.811,7.312 7.469,7.312 l -20.367,0 9.839,5.003 c 0.768,0.401 0.768,1.056 0,1.456 l -11.033,5.763 -5.576,0 -0.026,-0.055 12.325,-6.436 -11.237,-5.731 -16.777,0 c 4.489,12.634 16.545,21.684 30.719,21.684 18.004,0 32.6,-14.596 32.6,-32.599 0,-18.003 -14.596,-32.598 -32.6,-32.598 m 0,66.614 c -18.785,0 -34.015,-15.229 -34.015,-34.016 0,-18.787 15.23,-34.015 34.015,-34.015 18.787,0 34.017,15.228 34.017,34.015 0,18.787 -15.23,34.016 -34.017,34.016"
             style="fill:#1b1b1f;fill-opacity:1;fill-rule:nonzero;stroke:none"
             id="path22"
             inkscape:connector-curvature="0" /></g></g></g></g></svg>