<?xml version="1.0" encoding="UTF-8" standalone="no"?>
<!-- Created with Inkscape (http://www.inkscape.org/) -->

<svg
   xmlns:dc="http://purl.org/dc/elements/1.1/"
   xmlns:cc="http://creativecommons.org/ns#"
   xmlns:rdf="http://www.w3.org/1999/02/22-rdf-syntax-ns#"
   xmlns:svg="http://www.w3.org/2000/svg"
   xmlns="http://www.w3.org/2000/svg"
   xmlns:sodipodi="http://sodipodi.sourceforge.net/DTD/sodipodi-0.dtd"
   xmlns:inkscape="http://www.inkscape.org/namespaces/inkscape"
   id="svg2"
   version="1.1"
   inkscape:version="0.91 r13725"
   xml:space="preserve"
   width="124.0125"
   height="124.0125"
   viewBox="0 0 124.0125 124.0125"
   sodipodi:docname="tram.svg"><metadata
     id="metadata8"><rdf:RDF><cc:Work
         rdf:about=""><dc:format>image/svg+xml</dc:format><dc:type
           rdf:resource="http://purl.org/dc/dcmitype/StillImage" /><dc:title></dc:title></cc:Work></rdf:RDF></metadata><defs
     id="defs6"><clipPath
       clipPathUnits="userSpaceOnUse"
       id="clipPath18"><path
         d="m 0,99.21 99.21,0 L 99.21,0 0,0 0,99.21 Z"
         id="path20"
         inkscape:connector-curvature="0" /></clipPath></defs><sodipodi:namedview
     pagecolor="#ffffff"
     bordercolor="#666666"
     borderopacity="1"
     objecttolerance="10"
     gridtolerance="10"
     guidetolerance="10"
     inkscape:pageopacity="0"
     inkscape:pageshadow="2"
     inkscape:window-width="1680"
     inkscape:window-height="1014"
     id="namedview4"
     showgrid="false"
     inkscape:zoom="1.903034"
     inkscape:cx="-29.952171"
     inkscape:cy="62.006248"
     inkscape:window-x="0"
     inkscape:window-y="36"
     inkscape:window-maximized="0"
     inkscape:current-layer="g10" /><g
     id="g10"
     inkscape:groupmode="layer"
     inkscape:label="drift_trikk_SORT"
     transform="matrix(1.25,0,0,-1.25,0,124.0125)"><path
       d="m 25.591,33.468 48.03,0 0,2.267 -48.03,0 0,-2.267 z"
       style="fill:#1b1b1f;fill-opacity:1;fill-rule:nonzero;stroke:none"
       id="path12"
       inkscape:connector-curvature="0" /><g
       id="g14"><g
         id="g16"
         clip-path="url(#clipPath18)"><g
           id="g22"
           transform="translate(62.2383,48.2461)"><path
             d="m 0,0 0,8.041 8.131,0 L 9.916,0 0,0 Z m -1.787,0 -9.94,0 0,8.041 9.94,0 0,-8.041 z m -11.723,0 -9.943,0 0,8.041 9.943,0 0,-8.041 z m -11.729,0 -9.944,0 1.785,8.041 8.159,0 0,-8.041 z m 37.792,-1.804 -0.979,4.406 -1.705,7.692 -0.004,0 -0.23,1.038 c -0.104,0.479 -0.59,0.871 -1.08,0.871 l -20.257,0 4.809,4.245 c 0.27,0.239 0.42,0.582 0.413,0.941 -0.008,0.359 -0.174,0.696 -0.454,0.922 l -6.419,5.177 -3.881,0 7.648,-6.168 -5.796,-5.117 -18.437,0 c -0.491,0 -0.976,-0.392 -1.082,-0.871 l -0.959,-4.317 -1.813,-8.176 0.001,-10e-4 -0.141,-0.642 c -0.252,-1.125 0.063,-2.832 0.699,-3.793 l 1.913,-2.893 6.599,0 0,-0.696 c 0,-0.98 0.801,-1.781 1.777,-1.781 l 5.57,0 c 0.981,0 1.779,0.801 1.779,1.781 l 0,0.696 13.687,0 0,-0.696 c 0,-0.98 0.803,-1.781 1.779,-1.781 l 5.569,0 c 0.98,0 1.777,0.801 1.777,1.781 l 0,0.696 6.6,0 1.912,2.893 c 0.636,0.961 0.955,2.668 0.705,3.793"
             style="fill:#1b1b1f;fill-opacity:1;fill-rule:nonzero;stroke:none"
             id="path24"
             inkscape:connector-curvature="0" /></g><g
           id="g26"
           transform="translate(15.5908,49.6045)"><path
             d="M 0,0 C 0,18.786 15.229,34.016 34.016,34.016 52.802,34.016 68.03,18.786 68.03,0 68.03,-18.787 52.802,-34.016 34.016,-34.016 15.229,-34.016 0,-18.787 0,0 m 34.016,-32.599 c 18.003,0 32.598,14.595 32.598,32.599 0,18.003 -14.595,32.599 -32.598,32.599 C 16.012,32.599 1.418,18.003 1.418,0 c 0,-18.004 14.594,-32.599 32.598,-32.599"
             style="fill:#1b1b1f;fill-opacity:1;fill-rule:nonzero;stroke:none"
             id="path28"
             inkscape:connector-curvature="0" /></g></g></g></g></svg>