<?xml version="1.0" encoding="UTF-8" standalone="no"?>
<!-- Generator: Adobe Illustrator 17.0.1, SVG Export Plug-In . SVG Version: 6.00 Build 0)  -->

<svg
   xmlns:dc="http://purl.org/dc/elements/1.1/"
   xmlns:cc="http://creativecommons.org/ns#"
   xmlns:rdf="http://www.w3.org/1999/02/22-rdf-syntax-ns#"
   xmlns:svg="http://www.w3.org/2000/svg"
   xmlns="http://www.w3.org/2000/svg"
   xmlns:sodipodi="http://sodipodi.sourceforge.net/DTD/sodipodi-0.dtd"
   xmlns:inkscape="http://www.inkscape.org/namespaces/inkscape"
   version="1.1"
   x="0px"
   y="0px"
   width="86px"
   height="86px"
   viewBox="0 0 86 86"
   enable-background="new 0 0 86 86"
   xml:space="preserve"
   id="svg2"
   inkscape:version="0.91 r13725"
   sodipodi:docname="harbour-ruter.svg"><metadata
     id="metadata21"><rdf:RDF><cc:Work
         rdf:about=""><dc:format>image/svg+xml</dc:format><dc:type
           rdf:resource="http://purl.org/dc/dcmitype/StillImage" /><dc:title></dc:title></cc:Work></rdf:RDF></metadata><defs
     id="defs19" /><sodipodi:namedview
     pagecolor="#ffffff"
     bordercolor="#666666"
     borderopacity="1"
     objecttolerance="10"
     gridtolerance="10"
     guidetolerance="10"
     inkscape:pageopacity="0"
     inkscape:pageshadow="2"
     inkscape:window-width="1680"
     inkscape:window-height="1014"
     id="namedview17"
     showgrid="false"
     inkscape:zoom="2.744186"
     inkscape:cx="-20.042373"
     inkscape:cy="43"
     inkscape:window-x="0"
     inkscape:window-y="36"
     inkscape:window-maximized="0"
     inkscape:current-layer="svg2" /><g
     id="Layer_2"
     display="none" /><g
     id="Layer_1"><linearGradient
       id="SVGID_1_"
       gradientUnits="userSpaceOnUse"
       x1="85.2831"
       y1="0.7169"
       x2="0.7169"
       y2="85.2831"><stop
         offset="0.0054"
         style="stop-color:#51EAEE"
         id="stop7" /><stop
         offset="1"
         style="stop-color:#00B4E6"
         id="stop9" /></linearGradient><path
       fill="url(#SVGID_1_)"
       d="M84.277,0.3H43C19.417,0.3,0.3,19.418,0.3,43v41.277c0,0.786,0.637,1.423,1.423,1.423H43   c23.583,0,42.7-19.118,42.7-42.7V1.723C85.7,0.937,85.063,0.3,84.277,0.3z"
       id="path11"
       style="fill:#32374b;fill-opacity:1" /></g><g
     id="g12"
     transform="matrix(2.2700852,0,0,-2.7007325,49.049836,48.900808)"><path
       d="m 0,0 -6.148,0 1.139,5.854 6.146,0 L 0,0 Z m 11.383,5.854 0.759,3.903 -6.147,0 1.137,5.855 -4.097,0 -1.139,-5.855 -6.146,10e-4 1.137,5.854 -4.098,0 -1.138,-5.854 -6.148,0 -0.758,-3.904 6.147,0 -1.138,-5.854 -6.147,0 -0.758,-3.903 6.147,0 -1.139,-5.855 4.099,0 1.138,5.855 6.147,0 -1.138,-5.855 4.098,0 1.138,5.855 6.147,0 0.759,3.903 -6.147,0 1.138,5.854 6.147,0 z"
       style="fill:#ffffff;fill-opacity:1;fill-rule:nonzero;stroke:none"
       id="path14"
       inkscape:connector-curvature="0" /></g></svg>